<?xml version="1.0" encoding="utf-8"?>
<!-- Generator: Adobe Illustrator 16.0.4, SVG Export Plug-In . SVG Version: 6.00 Build 0)  -->
<!DOCTYPE svg PUBLIC "-//W3C//DTD SVG 1.1//EN" "http://www.w3.org/Graphics/SVG/1.1/DTD/svg11.dtd">
<svg version="1.1" id="Layer_1" xmlns="http://www.w3.org/2000/svg" xmlns:xlink="http://www.w3.org/1999/xlink" x="0px" y="0px"
	 width="50px" height="50px" viewBox="0 0 50 50" enable-background="new 0 0 50 50" xml:space="preserve">
<path fill-rule="evenodd" clip-rule="evenodd" d="M50,31.5c-4.44,1.43-6.507,0.13-5.979-3.76c0.401-2.956,2.014-3.561,5.979-2.24
	C50,27.5,50,29.5,50,31.5z"/>
<path fill-rule="evenodd" clip-rule="evenodd" d="M23.827,18.979c0,10.636,0,20.918,0,30.713c-7.078-1.676-14.093-3.337-21.49-5.088
	c0-2.936,0-6.19,0-9.903c3.282-0.597,5.794-2.17,5.724-6.376c-0.068-4.021-2.556-5.391-5.77-6.021c0-2.253,0-4.182,0-6.621
	C9.701,15.75,16.699,16.247,23.827,18.979z"/>
<path fill-rule="evenodd" clip-rule="evenodd" d="M26.181,49.702c0-9.771,0-20.055,0-30.288c5.583-2.802,12.817-4.031,21.53-3.539
	c0.109,1.961,0.222,4.002,0.353,6.379c-3.849,0.647-6.254,2.332-6.116,6.534c0.125,3.808,2.341,5.217,5.805,5.9
	c0,3.266,0,6.545,0,9.894C40.568,46.287,33.41,47.986,26.181,49.702z"/>
<path fill-rule="evenodd" clip-rule="evenodd" d="M15.701,14.244c-1.293-6.253,1.072-10.56,6.531-12.139
	c5.297-1.533,10.577,1.234,12.331,6.463c1.324,3.948,0.168,5.429-3.67,6.959C25.414,17.711,20.583,16.112,15.701,14.244z"/>
<path fill-rule="evenodd" clip-rule="evenodd" d="M-0.023,31.5c4.44,1.43,6.507,0.13,5.979-3.76
	c-0.401-2.956-2.014-3.561-5.979-2.24C-0.023,27.5-0.023,29.5-0.023,31.5z"/>
<g>
	<path fill="none" d="M13.149,10.513c1.259,0.61,2.669,0.875,4.086,1.034c1.792,0.202,3.6,0.37,5.408,0.312
		c4.151-0.135,8.249-0.542,12.157-1.716c-0.104,0.012-0.21,0.021-0.325,0.016c-2.673-0.136-5.347-0.104-8.02-0.079
		c-0.004,0.329-0.006,0.658-0.01,0.988c0,0.035-0.069,0.07-0.35,0.111v-1.096c-2.917,0.027-5.834,0.038-8.749-0.192
		C16.35,9.812,15.8,9.068,15.694,8.287c-0.498,0.105-0.993,0.226-1.485,0.375c-0.406,0.124-0.823,0.266-1.167,0.469
		C12.209,9.622,12.26,10.084,13.149,10.513z"/>
	<path fill="none" d="M33.644,27.545c-0.996,0.486-2.077,0.83-3.177,1.084H38.6c-0.027-0.075-0.046-0.152-0.052-0.231
		c-0.021-0.294-0.002-1.28-0.231-2.026l-0.287-0.583c-0.298-0.376-0.774-0.478-1.55,0.073
		C35.546,26.525,34.676,27.041,33.644,27.545z"/>
	<path fill="none" d="M49.807-10.374c-15.678,0.011-31.357,0.011-47.034,0c-0.47,0-0.578,0.085-0.578,0.466
		c0.017,12.694,0.017,25.388,0,38.08c0,0.383,0.105,0.47,0.578,0.467c4.02-0.017,8.038-0.01,12.059-0.009
		c0.026-0.239,0.152-0.465,0.4-0.595c2.337-1.223,4.921-0.628,7.477-0.457c0.132-0.19,0.333-0.337,0.615-0.371
		c1.216-0.146,1.952-0.642,2.776-0.792v-0.139h0.378v0.097c0.487-0.018,1.028,0.106,1.728,0.502c0.126,0.071,0.222,0.178,0.289,0.3
		c2.849-0.605,5.204-1.71,8.054-3.244c1.068-0.575,1.817-0.419,2.351,0.093c2.32,1.065,3.451,2.812,1.501,4.606
		c3.136-0.001,6.27-0.008,9.406,0.009c0.47,0.003,0.577-0.084,0.577-0.467c-0.017-12.691-0.017-25.386,0-38.08
		C50.384-10.288,50.276-10.374,49.807-10.374z M12.374,9.041c0.756-0.689,1.792-0.913,2.822-1.118
		c0.162-0.033,0.326-0.048,0.489-0.077c0.067-0.806,0.615-1.523,1.663-1.441c2.519,0.198,5.04,0.215,7.561,0.199
		c-0.477-0.291-0.782-0.671-0.864-1.165c-0.124-0.725,0.364-1.489,1.174-1.834c1.161-0.495,2.495-0.148,3.101,0.806
		c0.466,0.737,0.197,1.634-0.559,2.171c2.238-0.019,4.478-0.023,6.716,0.091c1.898,0.096,2.188,2.614,0.86,3.307
		c0.125-0.04,0.252-0.073,0.377-0.115c1.443-0.486,2.801-1.116,3.765-2.172c0.815-0.896,0.773-2.025-0.138-2.852
		c-0.826-0.747-1.818-1.301-2.956-1.696c-0.334-0.116-0.735-0.178-0.904-0.498c-0.42,0.438-0.83,0.877-1.558,1.016
		c-1.288,0.241-2.52-0.369-2.765-1.382c-0.258-1.058,0.538-2.006,1.82-2.167c1.313-0.166,2.416,0.5,2.586,1.571
		c0.025,0.172,0,0.351,0,0.526c0.923,0.613,2.128,0.839,3.043,1.478c1.174,0.82,2.219,1.696,1.964,3.081
		c-0.22,1.207-1.344,1.9-2.488,2.53c-2.24,1.234-4.812,1.802-7.411,2.251c-4.089,0.706-8.226,0.793-12.386,0.506
		c-1.195-0.081-2.34-0.283-3.495-0.492c-0.842-0.15-1.589-0.461-2.261-0.883C11.804,10.229,11.773,9.594,12.374,9.041z
		 M39.011,22.428c-2.715,1.807-5.986,2.447-9.301,2.997c-3.364,0.558-6.78,0.556-10.182,0.439c-2.331-0.079-4.69-0.263-6.737-1.336
		c-1.181-0.616-1.085-1.563,0.122-2.142c0.5-0.239,1.02-0.42,1.55-0.568c-0.264-0.367-0.23-0.888,0.234-1.187
		c2.026-1.304,5.226-0.332,7.468-0.292c0.196,0.003,0.344,0.074,0.469,0.167c1.188-0.029,2.378-0.131,3.56-0.122v-0.951h0.19v0.951
		c0.873,0.016,1.742,0.101,2.604,0.341c0.063,0.018,0.111,0.05,0.163,0.078c0.445,0.021,0.89,0.027,1.334,0.02
		c0.008-0.002,0.015-0.005,0.022-0.008c0.205-0.08,0.379-0.061,0.528-0.001c1.013-0.023,2.024-0.049,3.037,0.09
		c0.232,0.032,0.394,0.18,0.492,0.369c0.291,0.373,0.287,0.982-0.204,1.245c-0.003,0.002-0.007,0.003-0.01,0.004
		c0.492,0.138,0.979,0.292,1.451,0.488c-0.277,0.301-0.556,0.241-0.873,0.153c-0.409-0.116-0.821-0.225-1.233-0.33
		c-0.279,0.118-0.563,0.222-0.872,0.304c-0.358,0.095-0.668-0.07-0.86-0.324c-1.569,0.228-3.11,0.625-4.67,0.948
		c-0.429,0.089-0.745-0.117-0.909-0.406v1.527h-0.19v-2.556c-1.194-0.023-2.388-0.048-3.583-0.052c-0.165,0-0.295-0.049-0.41-0.116
		c-0.149-0.023-0.264-0.089-0.36-0.171c-0.982-0.038-1.961-0.149-2.942-0.204c-0.132,0.16-0.319,0.281-0.569,0.312
		c-1.147,0.142-2.311,0.497-3.433,0.06c-0.001,0-0.003-0.002-0.004-0.002c-0.605,0.14-1.194,0.319-1.73,0.603
		c-0.971,0.521-0.959,0.96,0.007,1.484c0.907,0.487,1.954,0.701,2.986,0.851c3.331,0.494,6.663,0.55,10.05,0.245
		c3.22-0.286,6.347-0.751,9.36-1.716c1.3-0.415,2.449-1.014,3.483-1.756c1.302-0.936,1.335-2.432,0.138-3.444
		c-0.503-0.424-1.042-0.803-1.67-1.099c-0.129-0.061-0.31-0.136-0.225-0.288c0.101-0.177,0.349-0.167,0.487-0.095
		c1.235,0.673,2.476,1.398,2.765,2.657C40.813,20.755,40.147,21.671,39.011,22.428z M39.007,15.567
		c-2.7,1.82-5.984,2.423-9.288,3.01c-3.428,0.606-6.906,0.53-10.367,0.424c-2.229-0.067-4.499-0.271-6.465-1.285
		c-1.319-0.677-1.242-1.562,0.119-2.215c1.057-0.505,2.195-0.768,3.362-0.945c-0.122-0.075-0.208-0.165-0.269-0.265
		c-0.937-0.436-0.1-1.833,0.867-1.423c0.023,0.01,0.047,0.019,0.069,0.028c0.03-0.007,0.061-0.015,0.091-0.022
		c0.015-0.003,0.026,0.001,0.041-0.002c0.224-0.119,0.493-0.143,0.745-0.012c0.089-0.007,0.18-0.012,0.282,0.014
		c2.634,0.671,5.317,0.542,8.001,0.34v-0.639h0.188V13.2c1.48-0.113,2.961-0.242,4.434-0.266c0.289-0.005,0.494,0.117,0.628,0.291
		c0.163,0.004,0.312,0.035,0.428,0.11c0.037,0.01,0.063,0.032,0.097,0.046c0.437-0.232,0.866-0.483,1.281-0.779
		c0.878-0.625,1.71,0.822,0.842,1.44c-0.619,0.441-1.263,0.809-1.923,1.123c0.251,0.053,0.503,0.104,0.753,0.161
		c0.956,0.217,1.927,0.406,2.879,0.828c-0.354,0.394-0.728,0.201-1.062,0.107c-1.085-0.309-2.186-0.564-3.297-0.785
		c-1.615,0.649-3.322,0.971-5.06,1.021v1.529h-0.188v-1.53c-1.326,0.024-2.665-0.102-3.991-0.341
		c-1.92,0.136-2.946-0.199-4.366-0.958c-0.263-0.07-0.521-0.16-0.772-0.275c-0.365,0.045-0.731,0.087-1.095,0.156
		C15,15.262,14.015,15.445,13.168,15.9c-0.983,0.525-0.942,1.047,0.079,1.516c1.279,0.584,2.686,0.834,4.11,0.984
		c1.698,0.177,3.409,0.375,5.124,0.314c4.502-0.162,8.962-0.534,13.167-1.979c1.475-0.504,2.863-1.131,3.841-2.209
		c0.792-0.865,0.762-1.986-0.114-2.79c-0.536-0.499-1.14-0.938-1.858-1.269c-0.124-0.059-0.306-0.134-0.225-0.287
		c0.096-0.18,0.347-0.172,0.482-0.097c1.236,0.668,2.467,1.394,2.771,2.653C40.833,13.912,40.117,14.817,39.007,15.567z"/>
	<path fill-rule="evenodd" clip-rule="evenodd" fill="#D0D0D0" d="M38.606,3.688c-0.915-0.639-2.12-0.865-3.043-1.478
		c-0.031,0.146-0.055,0.291-0.084,0.436c0.169,0.32,0.57,0.382,0.904,0.498c1.138,0.395,2.13,0.949,2.956,1.696
		c0.911,0.827,0.953,1.956,0.138,2.852c-0.964,1.056-2.321,1.687-3.765,2.172c-0.125,0.042-0.252,0.075-0.377,0.115
		c-0.156,0.082-0.334,0.14-0.535,0.164c-3.908,1.175-8.006,1.582-12.157,1.716c-1.808,0.058-3.616-0.11-5.408-0.312
		c-1.417-0.16-2.827-0.424-4.086-1.034c-0.89-0.429-0.94-0.891-0.107-1.382c0.344-0.204,0.761-0.346,1.167-0.469
		c0.492-0.149,0.988-0.27,1.485-0.375c-0.02-0.147-0.021-0.295-0.009-0.441c-0.163,0.029-0.327,0.044-0.489,0.077
		c-1.031,0.205-2.066,0.429-2.822,1.118c-0.601,0.553-0.57,1.188,0.155,1.64c0.672,0.422,1.419,0.733,2.261,0.883
		c1.155,0.209,2.299,0.412,3.495,0.492c4.16,0.287,8.297,0.2,12.386-0.506c2.6-0.449,5.171-1.017,7.411-2.251
		c1.145-0.63,2.269-1.323,2.488-2.53C40.825,5.383,39.78,4.507,38.606,3.688z"/>
	<path fill-rule="evenodd" clip-rule="evenodd" fill="#D0D0D0" d="M40.546,12.737c-0.305-1.259-1.535-1.984-2.771-2.653
		c-0.136-0.075-0.387-0.083-0.482,0.097c-0.081,0.153,0.101,0.229,0.225,0.287c0.719,0.331,1.322,0.771,1.858,1.269
		c0.876,0.804,0.906,1.925,0.114,2.79c-0.978,1.078-2.366,1.705-3.841,2.209c-4.205,1.445-8.665,1.818-13.167,1.979
		c-1.715,0.061-3.426-0.138-5.124-0.314c-1.424-0.15-2.832-0.4-4.11-0.984c-1.021-0.469-1.062-0.991-0.079-1.516
		c0.847-0.455,1.832-0.638,2.803-0.823c0.363-0.069,0.729-0.111,1.095-0.156c-0.229-0.106-0.455-0.22-0.675-0.344
		c-0.01-0.006-0.014-0.015-0.024-0.021c-1.167,0.177-2.305,0.44-3.362,0.945c-1.361,0.653-1.438,1.539-0.119,2.215
		c1.966,1.014,4.236,1.217,6.465,1.285c3.461,0.105,6.939,0.182,10.367-0.424c3.304-0.587,6.588-1.19,9.288-3.01
		C40.117,14.817,40.833,13.912,40.546,12.737z"/>
	<path fill-rule="evenodd" clip-rule="evenodd" fill="#D0D0D0" d="M40.544,19.595c-0.289-1.258-1.529-1.984-2.765-2.657
		c-0.139-0.073-0.387-0.082-0.487,0.095c-0.085,0.152,0.096,0.228,0.225,0.288c0.628,0.296,1.167,0.675,1.67,1.099
		c1.197,1.012,1.164,2.508-0.138,3.444c-1.034,0.742-2.184,1.341-3.483,1.756c-3.014,0.965-6.141,1.43-9.36,1.716
		c-3.388,0.305-6.72,0.249-10.05-0.245c-1.033-0.15-2.08-0.364-2.986-0.851c-0.966-0.524-0.978-0.963-0.007-1.484
		c0.536-0.284,1.125-0.463,1.73-0.603c-0.185-0.073-0.327-0.193-0.429-0.335c-0.53,0.148-1.049,0.329-1.55,0.568
		c-1.207,0.578-1.302,1.525-0.122,2.142c2.047,1.073,4.406,1.257,6.737,1.336c3.401,0.117,6.817,0.119,10.182-0.439
		c3.314-0.55,6.586-1.19,9.301-2.997C40.147,21.671,40.813,20.755,40.544,19.595z"/>
	<path fill-rule="evenodd" clip-rule="evenodd" fill="#3838CD" d="M24.908,6.604c0.95-0.006,1.9-0.014,2.852-0.022
		c0.756-0.537,1.024-1.435,0.559-2.171c-0.605-0.954-1.939-1.301-3.101-0.806c-0.81,0.346-1.298,1.11-1.174,1.834
		C24.126,5.933,24.431,6.313,24.908,6.604z M25.034,4.02c0.314-0.216,0.701-0.457,1.089-0.327c0.375,0.124,0.07,0.502,0.165,0.713
		c0,0.706-0.632,1.314-1.436,1.474c-0.342,0.068-0.384-0.122-0.422-0.278C24.28,4.993,24.421,4.44,25.034,4.02z"/>
	<path fill-rule="evenodd" clip-rule="evenodd" fill="#CC3636" d="M35.563,2.21c-0.031,0.146-0.055,0.291-0.084,0.436
		c-0.42,0.438-0.83,0.877-1.558,1.016c-1.288,0.241-2.52-0.369-2.765-1.382c-0.258-1.058,0.538-2.006,1.82-2.167
		c1.313-0.166,2.416,0.5,2.586,1.571C35.589,1.856,35.563,2.035,35.563,2.21z M33.404,3.477c0.403-0.037,0.842-0.142,1.22-0.39
		c0.345-0.228,0.429-0.451-0.061-0.602c-0.987-0.3-1.361-0.851-1.195-1.694c0.089-0.446-0.219-0.494-0.682-0.36
		c-0.833,0.237-1.407,0.964-1.276,1.661C31.562,2.886,32.376,3.473,33.404,3.477z"/>
	<path fill-rule="evenodd" clip-rule="evenodd" fill="#D4D4D4" d="M32.923,15.325c-0.25-0.057-0.502-0.107-0.753-0.161
		c-0.239,0.114-0.482,0.213-0.727,0.311c1.111,0.22,2.212,0.476,3.297,0.785c0.334,0.094,0.708,0.287,1.062-0.107
		C34.85,15.731,33.879,15.542,32.923,15.325z"/>
	<path fill-rule="evenodd" clip-rule="evenodd" fill="none" d="M26.288,4.407c0,0.706-0.632,1.314-1.436,1.474
		c-0.342,0.068-0.384-0.122-0.422-0.278c-0.15-0.609-0.01-1.162,0.604-1.583c0.314-0.216,0.701-0.457,1.089-0.327
		C26.498,3.817,26.193,4.195,26.288,4.407z"/>
	<path fill-rule="evenodd" clip-rule="evenodd" fill="none" d="M33.404,3.477c-1.028-0.004-1.842-0.591-1.994-1.385
		c-0.131-0.697,0.443-1.424,1.276-1.661c0.463-0.133,0.771-0.085,0.682,0.36c-0.166,0.843,0.208,1.394,1.195,1.694
		c0.489,0.151,0.405,0.374,0.061,0.602C34.246,3.335,33.808,3.44,33.404,3.477z"/>
</g>
</svg>
